<svg width="52" height="29" viewBox="0 0 52 29" fill="none" xmlns="http://www.w3.org/2000/svg">
    <rect x="31.8042" y="2.78262" width="1.81159" height="24.4565" rx="0.905797" fill="black"/>
    <rect x="36.3333" y="0.971024" width="1.81159" height="27.1739" rx="0.905797" fill="black"/>
    <rect x="40.8622" y="7.31161" width="1.81159" height="15.3986" rx="0.905797" fill="black"/>
    <rect x="45.3912" y="2.78262" width="1.81159" height="24.4565" rx="0.905797" fill="black"/>
    <rect x="49.9202" y="12.7464" width="1.81159" height="4.52899" rx="0.905797" fill="black"/>
    <rect x="4.63025" y="7.31161" width="1.81159" height="15.3986" rx="0.905797" fill="black"/>
    <rect x="9.1593" y="2.78262" width="1.81159" height="24.4565" rx="0.905797" fill="black"/>
    <rect x="13.6882" y="0.971024" width="1.81159" height="27.1739" rx="0.905797" fill="black"/>
    <rect x="18.2173" y="7.31161" width="1.81159" height="15.3986" rx="0.905797" fill="black"/>
    <rect x="22.7463" y="4.59422" width="1.81159" height="20.8333" rx="0.905797" fill="black"/>
    <rect x="27.2753" y="7.31161" width="1.81159" height="15.3986" rx="0.905797" fill="black"/>
    <rect x="0.101318" y="0.971031" width="1.81159" height="27.1739" rx="0.905797" fill="black"/>
</svg>
