<svg width="26" height="27" viewBox="0 0 26 27" fill="none" xmlns="http://www.w3.org/2000/svg">
<ellipse cx="12.9369" cy="8.49278" rx="4.62941" ry="4.62941" stroke="#9AA6BF" stroke-width="1.57445" stroke-linecap="round" stroke-linejoin="round"/>
<path fill-rule="evenodd" clip-rule="evenodd" d="M5.5937 19.5606C5.59246 19.2351 5.66524 18.9137 5.80655 18.6205C6.24998 17.7337 7.50045 17.2636 8.53808 17.0508C9.28642 16.8911 10.0451 16.7844 10.8084 16.7315C12.2217 16.6074 13.6432 16.6074 15.0565 16.7315C15.8198 16.785 16.5784 16.8917 17.3269 17.0508C18.3645 17.2636 19.615 17.6893 20.0584 18.6205C20.3426 19.2181 20.3426 19.9119 20.0584 20.5095C19.615 21.4407 18.3645 21.8664 17.3269 22.0704C16.5794 22.2367 15.8205 22.3464 15.0565 22.3985C13.9062 22.4961 12.7505 22.5138 11.5977 22.4518C11.3317 22.4518 11.0745 22.4518 10.8084 22.3985C10.0473 22.347 9.2913 22.2373 8.54695 22.0704C7.50045 21.8664 6.25885 21.4407 5.80655 20.5095C5.66597 20.213 5.59325 19.8888 5.5937 19.5606Z" stroke="#9AA6BF" stroke-width="1.57445" stroke-linecap="round" stroke-linejoin="round"/>
</svg>
