<svg width="29" height="29" viewBox="0 0 29 29" fill="none" xmlns="http://www.w3.org/2000/svg">
<path fill-rule="evenodd" clip-rule="evenodd" d="M11.2379 24.0983L21.4063 10.9486C21.9589 10.2395 22.1554 9.41964 21.9712 8.58488C21.8115 7.82601 21.3449 7.10446 20.6449 6.55707L18.9378 5.20105C17.4519 4.0192 15.6098 4.1436 14.5536 5.49962L13.4115 6.98129C13.2642 7.16666 13.301 7.44035 13.4852 7.58964C13.4852 7.58964 16.3712 9.90358 16.4326 9.95335C16.6291 10.14 16.7764 10.3888 16.8133 10.6873C16.8747 11.272 16.4694 11.8194 15.8677 11.8941C15.5852 11.9314 15.315 11.8443 15.1186 11.6826L12.0852 9.26911C11.9379 9.15839 11.7168 9.18203 11.594 9.33132L4.38523 18.6617C3.91857 19.2464 3.75892 20.0053 3.91857 20.7393L4.83962 24.7327C4.88874 24.9442 5.07295 25.0935 5.294 25.0935L9.34663 25.0438C10.0835 25.0313 10.7712 24.6954 11.2379 24.0983ZM16.9123 22.8546H23.5205C24.1653 22.8546 24.6896 23.3858 24.6896 24.039C24.6896 24.6933 24.1653 25.2233 23.5205 25.2233H16.9123C16.2676 25.2233 15.7432 24.6933 15.7432 24.039C15.7432 23.3858 16.2676 22.8546 16.9123 22.8546Z" fill="white"/>
</svg>
