<svg width="27" height="27" viewBox="0 0 27 27" fill="none" xmlns="http://www.w3.org/2000/svg">
<path fill-rule="evenodd" clip-rule="evenodd" d="M3.96522 6.0725C4.29724 5.52169 6.12772 3.52215 7.43211 3.58251C7.82236 3.61593 8.16732 3.85092 8.44761 4.12471H8.44868C9.09118 4.75421 10.9346 7.12994 11.0381 7.63009C11.2936 8.85676 9.8307 9.56387 10.2781 10.8002C11.4186 13.591 13.3838 15.556 16.1759 16.6954C17.4113 17.1438 18.1185 15.6821 19.3453 15.9365C19.8455 16.0411 22.2225 17.8832 22.851 18.5268V18.5268C23.1237 18.8059 23.3609 19.1519 23.3932 19.5421C23.4417 20.9165 21.318 22.7716 20.9041 23.0087C19.9274 23.7083 18.6532 23.6954 17.0998 22.9732C12.7651 21.1698 5.83773 14.3735 4.00079 9.87539C3.29792 8.33074 3.25049 7.04802 3.96522 6.0725Z" stroke="#9AA6BF" stroke-width="1.57445" stroke-linecap="round" stroke-linejoin="round"/>
<path d="M16.1153 3.84369C20.0011 4.27509 23.0691 7.34003 23.5058 11.2247" stroke="#9AA6BF" stroke-width="1.57445" stroke-linecap="round" stroke-linejoin="round"/>
<path d="M16.1153 7.56253C17.9732 7.92465 19.4248 9.3763 19.7869 11.2342" stroke="#9AA6BF" stroke-width="1.57445" stroke-linecap="round" stroke-linejoin="round"/>
</svg>
