<svg width="65" height="65" viewBox="0 0 65 65" fill="none" xmlns="http://www.w3.org/2000/svg">
    <circle opacity="0.15" cx="32.7274" cy="32.822" r="31.4891" stroke="#373744" stroke-width="1.04964"/>
    <path fill-rule="evenodd" clip-rule="evenodd" d="M24.3311 34.6039V34.3855C24.3631 33.7395 24.5702 33.1135 24.9309 32.5722C25.5314 31.9219 25.9424 31.125 26.1209 30.2651C26.1209 29.6005 26.1209 28.9265 26.1789 28.2619C26.4788 25.0624 29.6424 22.8503 32.7673 22.8503H32.8447C35.9695 22.8503 39.1331 25.0624 39.4427 28.2619C39.5007 28.9265 39.4427 29.6005 39.491 30.2651C39.6719 31.127 40.0826 31.9264 40.681 32.5817C41.0444 33.1182 41.2518 33.7419 41.2808 34.3855V34.5944C41.3024 35.4624 41.0035 36.3087 40.4391 36.9774C39.6934 37.7592 38.6814 38.2456 37.5948 38.3445C34.4085 38.6863 31.1937 38.6863 28.0074 38.3445C26.922 38.2414 25.9115 37.7557 25.1631 36.9774C24.6075 36.3082 24.3126 35.4669 24.3311 34.6039Z" stroke="#161624" stroke-width="1.57445" stroke-linecap="round" stroke-linejoin="round"/>
    <path d="M30.368 41.6483C30.8658 42.2732 31.5969 42.6776 32.3994 42.772C33.202 42.8665 34.0098 42.6431 34.6441 42.1515C34.8392 42.006 35.0147 41.837 35.1665 41.6483" stroke="#161624" stroke-width="1.78438" stroke-linecap="round" stroke-linejoin="round"/>
</svg>
