<svg width="55" height="55" viewBox="0 0 55 55" fill="none" xmlns="http://www.w3.org/2000/svg">
    <circle cx="27.2536" cy="27.7464" r="27.1739" fill="white"/>
    <circle cx="27.2536" cy="27.7464" r="26.721" stroke="black" stroke-opacity="0.1" stroke-width="0.905797"/>
    <circle cx="48.0869" cy="10.5362" r="4.52899" fill="url(#paint0_linear)" stroke="#131320" stroke-width="1.81159"/>
    <g filter="url(#filter0_d)">
        <path fill-rule="evenodd" clip-rule="evenodd" d="M28.7744 20.8077C28.6161 20.785 28.4571 20.8318 28.3306 20.9325C28.2006 21.0346 28.1193 21.1821 28.1017 21.3473C28.0642 21.6813 28.3052 21.9833 28.6387 22.0209C30.9388 22.2776 32.7266 24.0694 32.9852 26.3766C33.0199 26.6858 33.2792 26.9191 33.5887 26.9191C33.612 26.9191 33.6346 26.9176 33.6579 26.9148C33.8198 26.8971 33.9639 26.817 34.0657 26.6893C34.1667 26.5617 34.2126 26.4029 34.1943 26.2405C33.8721 23.3617 31.644 21.1275 28.7744 20.8077ZM28.8188 23.2781C28.4811 23.2157 28.1708 23.4313 28.1065 23.761C28.0422 24.0907 28.2585 24.4126 28.587 24.4771C29.5763 24.67 30.3402 25.4358 30.5338 26.4285V26.4292C30.5889 26.7149 30.8405 26.9227 31.1302 26.9227C31.1691 26.9227 31.2079 26.9191 31.2475 26.912C31.5761 26.8461 31.7923 26.5249 31.728 26.1945C31.439 24.7118 30.2978 23.5667 28.8188 23.2781ZM29.9412 30.0905C30.2615 29.9058 30.6233 29.6972 31.0797 29.7942C31.4931 29.8815 32.9021 31.0252 33.288 31.4215C33.5409 31.681 33.6816 31.9491 33.7035 32.2171C33.7416 33.2686 32.3128 34.469 32.0528 34.6186C31.7072 34.8675 31.3051 34.993 30.8536 34.993C30.3922 34.993 29.8777 34.8619 29.3167 34.6002C26.2725 33.3296 21.6222 28.7711 20.3926 25.7505C19.8824 24.6259 19.8789 23.6985 20.3841 23.0015C20.5855 22.6746 21.7338 21.3083 22.7619 21.3515C23.0354 21.3749 23.3011 21.5153 23.5619 21.7706C23.9562 22.157 25.0712 23.5702 25.1574 23.985C25.2528 24.4458 25.0437 24.8124 24.8578 25.1343C24.8182 25.2035 24.7648 25.2857 24.7063 25.3756C24.4842 25.7171 24.1886 26.1716 24.2932 26.4617C25.043 28.3024 26.7749 29.9084 28.6164 30.6628C28.9012 30.7663 29.3554 30.4687 29.6958 30.2456C29.7844 30.1875 29.8654 30.1344 29.9336 30.0949L29.9412 30.0905Z" fill="#12121F"/>
    </g>
    <defs>
        <filter id="filter0_d" x="12.7612" y="18.0847" width="28.6834" height="28.6837" filterUnits="userSpaceOnUse" color-interpolation-filters="sRGB">
            <feFlood flood-opacity="0" result="BackgroundImageFix"/>
            <feColorMatrix in="SourceAlpha" type="matrix" values="0 0 0 0 0 0 0 0 0 0 0 0 0 0 0 0 0 0 127 0"/>
            <feOffset dy="4.52899"/>
            <feGaussianBlur stdDeviation="3.62319"/>
            <feColorMatrix type="matrix" values="0 0 0 0 1 0 0 0 0 1 0 0 0 0 1 0 0 0 0.11 0"/>
            <feBlend mode="normal" in2="BackgroundImageFix" result="effect1_dropShadow"/>
            <feBlend mode="normal" in="SourceGraphic" in2="effect1_dropShadow" result="shape"/>
        </filter>
        <linearGradient id="paint0_linear" x1="51.7101" y1="0.0619373" x2="42.5533" y2="11.3926" gradientUnits="userSpaceOnUse">
            <stop stop-color="#FF8149"/>
            <stop offset="1" stop-color="#FD4E2C"/>
        </linearGradient>
    </defs>
</svg>
